<mxfile host="app.diagrams.net" agent="Mozilla/5.0 (Windows NT 10.0; Win64; x64) AppleWebKit/537.36 (KHTML, like Gecko) Chrome/126.0.0.0 Safari/537.36 OPR/112.0.0.0" version="24.7.13">
  <diagram name="Página-1" id="2q5IjfIliK_JajHTXci-">
    <mxGraphModel grid="1" page="1" gridSize="10" guides="1" tooltips="1" connect="1" arrows="1" fold="1" pageScale="1" pageWidth="827" pageHeight="1169" math="0" shadow="0">
      <root>
        <mxCell id="0" />
        <mxCell id="1" parent="0" />
        <mxCell id="MHZqywm2RGJGBJ6-DK7l-1" value="" style="rounded=0;whiteSpace=wrap;html=1;align=left;" vertex="1" parent="1">
          <mxGeometry x="160" y="160" width="540" height="340" as="geometry" />
        </mxCell>
        <mxCell id="MHZqywm2RGJGBJ6-DK7l-2" value="" style="edgeStyle=orthogonalEdgeStyle;rounded=0;orthogonalLoop=1;jettySize=auto;html=1;" edge="1" parent="1" source="MHZqywm2RGJGBJ6-DK7l-3" target="MHZqywm2RGJGBJ6-DK7l-5">
          <mxGeometry relative="1" as="geometry">
            <mxPoint x="190" y="330" as="targetPoint" />
          </mxGeometry>
        </mxCell>
        <mxCell id="MHZqywm2RGJGBJ6-DK7l-3" value="Admin" style="shape=umlActor;verticalLabelPosition=bottom;verticalAlign=top;html=1;outlineConnect=0;" vertex="1" parent="1">
          <mxGeometry x="110" y="300" width="30" height="60" as="geometry" />
        </mxCell>
        <mxCell id="MHZqywm2RGJGBJ6-DK7l-4" value="" style="edgeStyle=orthogonalEdgeStyle;rounded=0;orthogonalLoop=1;jettySize=auto;html=1;" edge="1" parent="1" source="MHZqywm2RGJGBJ6-DK7l-5" target="MHZqywm2RGJGBJ6-DK7l-7">
          <mxGeometry relative="1" as="geometry" />
        </mxCell>
        <mxCell id="MHZqywm2RGJGBJ6-DK7l-5" value="Ingresar usuario" style="ellipse;whiteSpace=wrap;html=1;" vertex="1" parent="1">
          <mxGeometry x="190" y="300" width="100" height="60" as="geometry" />
        </mxCell>
        <mxCell id="MHZqywm2RGJGBJ6-DK7l-7" value="Ingresar contraseña" style="ellipse;whiteSpace=wrap;html=1;" vertex="1" parent="1">
          <mxGeometry x="320" y="295" width="110" height="70" as="geometry" />
        </mxCell>
        <mxCell id="MHZqywm2RGJGBJ6-DK7l-9" value="Iniciar sesión" style="ellipse;whiteSpace=wrap;html=1;" vertex="1" parent="1">
          <mxGeometry x="438.5" y="200" width="110" height="70" as="geometry" />
        </mxCell>
        <mxCell id="MHZqywm2RGJGBJ6-DK7l-10" value="Desplegar menú inicio" style="ellipse;whiteSpace=wrap;html=1;" vertex="1" parent="1">
          <mxGeometry x="570" y="295" width="110" height="70" as="geometry" />
        </mxCell>
        <mxCell id="nMw6MyfmQw3vknaODR1c-2" value="" style="endArrow=block;dashed=1;endFill=0;endSize=12;html=1;rounded=0;entryX=0.5;entryY=1;entryDx=0;entryDy=0;exitX=1;exitY=0.5;exitDx=0;exitDy=0;" edge="1" parent="1" source="MHZqywm2RGJGBJ6-DK7l-7" target="MHZqywm2RGJGBJ6-DK7l-9">
          <mxGeometry width="160" relative="1" as="geometry">
            <mxPoint x="330" y="410" as="sourcePoint" />
            <mxPoint x="490" y="410" as="targetPoint" />
            <Array as="points">
              <mxPoint x="494" y="330" />
            </Array>
          </mxGeometry>
        </mxCell>
        <mxCell id="nMw6MyfmQw3vknaODR1c-5" value="Implement" style="edgeLabel;html=1;align=center;verticalAlign=middle;resizable=0;points=[];" connectable="0" vertex="1" parent="nMw6MyfmQw3vknaODR1c-2">
          <mxGeometry x="-0.2881" y="2" relative="1" as="geometry">
            <mxPoint as="offset" />
          </mxGeometry>
        </mxCell>
        <mxCell id="nMw6MyfmQw3vknaODR1c-3" value="Extends" style="endArrow=block;endSize=16;endFill=0;html=1;rounded=0;exitX=1;exitY=0.5;exitDx=0;exitDy=0;entryX=0.5;entryY=0;entryDx=0;entryDy=0;" edge="1" parent="1" source="MHZqywm2RGJGBJ6-DK7l-9" target="MHZqywm2RGJGBJ6-DK7l-10">
          <mxGeometry width="160" relative="1" as="geometry">
            <mxPoint x="330" y="410" as="sourcePoint" />
            <mxPoint x="490" y="410" as="targetPoint" />
            <Array as="points">
              <mxPoint x="625" y="235" />
            </Array>
          </mxGeometry>
        </mxCell>
      </root>
    </mxGraphModel>
  </diagram>
</mxfile>
